<svg xmlns="http://www.w3.org/2000/svg" viewBox="0 0 44 40"><title>game-controller@1x</title><g id="Layer_2" data-name="Layer 2"><g id="Electronics"><g id="Game_Controler_2x.png" data-name="Game Controler@2x.png"><path d="M19,23a1,1,0,1,0,1,1A1,1,0,0,0,19,23Zm6,0a1,1,0,1,0,1,1A1,1,0,0,0,25,23ZM14,28H12V26a1,1,0,0,0-2,0v2H8a1,1,0,0,0,0,2h2v2a1,1,0,0,0,2,0V30h2a1,1,0,0,0,0-2ZM33,18H23.06c-1-1.81-.19-2.73,1.27-4.16C25.52,12.67,27,11.22,27,9,27,3.45,20.71.24,20.45.11a1,1,0,0,0-.9,1.79C19.61,1.92,25,4.69,25,9c0,1.38-1,2.37-2.07,3.41-1.37,1.34-3,3-2,5.59H11a11,11,0,1,0,8.49,18h5A11,11,0,1,0,33,18Zm0,20a9,9,0,0,1-7.48-4h-7A9,9,0,1,1,11,20H33a9,9,0,0,1,0,18Zm2-13a2,2,0,1,0,2,2A2,2,0,0,0,35,25Zm-4,4a2,2,0,1,0,2,2A2,2,0,0,0,31,29Z"/></g></g></g></svg>