<?xml version="1.0" encoding="UTF-8" standalone="no"?><!DOCTYPE svg PUBLIC "-//W3C//DTD SVG 1.1//EN" "http://www.w3.org/Graphics/SVG/1.1/DTD/svg11.dtd"><svg width="100%" height="100%" viewBox="0 0 500 500" version="1.1" xmlns="http://www.w3.org/2000/svg" xmlns:xlink="http://www.w3.org/1999/xlink" xml:space="preserve" xmlns:serif="http://www.serif.com/" style="fill-rule:evenodd;clip-rule:evenodd;stroke-linejoin:round;stroke-miterlimit:1.41421;"><circle cx="250" cy="250" r="249.5" style="fill:url(#_Linear1);"/><circle cx="250" cy="250" r="194.075"/><path d="M97.039,282.878l65.144,0l0,-20.778l-41.433,0l0,-64.778l-23.711,0l0,85.556Z" style="fill:#fff;fill-rule:nonzero;"/><path d="M203.494,284.467c21.267,0 36.667,-15.767 36.667,-34.589l0,-0.245c0,-18.822 -15.278,-34.344 -36.422,-34.344c-21.267,0 -36.667,15.767 -36.667,34.589l0,0.244c0,18.822 15.278,34.345 36.422,34.345Zm0.245,-19.678c-8.189,0 -14.056,-6.845 -14.056,-14.911l0,-0.245c0,-7.944 5.378,-14.666 13.811,-14.666c8.189,0 14.056,6.844 14.056,14.911l0,0.244c0,7.945 -5.378,14.667 -13.811,14.667Z" style="fill:#fff;fill-rule:nonzero;"/><path d="M282.45,302.678c13.811,0 23.1,-3.3 29.089,-9.289c5.867,-5.867 8.555,-14.3 8.555,-26.4l0,-50.233l-23.222,0l0,7.822c-5.011,-5.256 -10.878,-9.289 -20.778,-9.289c-15.277,0 -28.6,11.733 -28.6,30.8l0,0.244c0,18.945 13.078,30.678 29.334,30.678c9.655,0 15.766,-4.522 20.411,-9.9l0,2.567c0,10.511 -5.745,16.255 -17.356,16.255c-8.922,0 -16.011,-2.322 -23.1,-6.233l-7.455,15.4c9.533,4.889 20.289,7.578 33.122,7.578Zm1.344,-43.511c-7.944,0 -13.566,-5.378 -13.566,-12.711l0,-0.245c0,-7.333 5.622,-12.833 13.566,-12.833c7.823,0 13.445,5.378 13.445,12.711l0,0.244c0,7.334 -5.622,12.834 -13.445,12.834Z" style="fill:#fff;fill-rule:nonzero;"/><path d="M366.294,284.467c21.267,0 36.667,-15.767 36.667,-34.589l0,-0.245c0,-18.822 -15.278,-34.344 -36.422,-34.344c-21.267,0 -36.667,15.767 -36.667,34.589l0,0.244c0,18.822 15.278,34.345 36.422,34.345Zm0.245,-19.678c-8.189,0 -14.056,-6.845 -14.056,-14.911l0,-0.245c0,-7.944 5.378,-14.666 13.811,-14.666c8.189,0 14.056,6.844 14.056,14.911l0,0.244c0,7.945 -5.378,14.667 -13.811,14.667Z" style="fill:#fff;fill-rule:nonzero;"/><defs><linearGradient id="_Linear1" x1="0" y1="0" x2="1" y2="0" gradientUnits="userSpaceOnUse" gradientTransform="matrix(-356.494,-315.26,315.26,-356.494,430.114,377.922)"><stop offset="0" style="stop-color:#1c36ec;stop-opacity:1"/><stop offset="0.51" style="stop-color:#479d62;stop-opacity:1"/><stop offset="1" style="stop-color:#56c133;stop-opacity:1"/></linearGradient></defs></svg>